<?xml version="1.0" encoding="UTF-8"?><svg id="Icon_lila" xmlns="http://www.w3.org/2000/svg" viewBox="0 0 122 122"><defs><style>.cls-1{fill:#fff;}</style></defs><path class="cls-1" d="m88,46h-5.38l-7.25-8.16c-.47-.53-1.15-.84-1.87-.84h-17c-.71,0-1.39.31-1.87.84l-7.25,8.16h-1.97v-3h-9.41v3h-2c-3.04,0-5.5,2.46-5.5,5.5v28c0,3.04,2.46,5.5,5.5,5.5h14v-2c0-1.66-1.34-3-3-3h-11c-.27,0-.5-.23-.5-.5v-28c0-.27.23-.5.5-.5h14.5c.71,0,1.39-.31,1.87-.84l7.25-8.16h14.75l7.25,8.16c.47.53,1.15.84,1.87.84h6.5c.27,0,.5.23.5.5v28c0,.27-.23.5-.5.5h-12.58c2.5-2.87,3.9-6.72,3.51-10.9-.63-6.74-6.04-12.25-12.77-13-8.74-.98-16.17,5.85-16.17,14.39,0,8,6.5,14.52,14.5,14.52.17,0,.33-.02.5-.03v.03h23c3.04,0,5.5-2.46,5.5-5.5v-28c0-3.04-2.46-5.5-5.5-5.5Zm-33,24.48c0-5.23,4.26-9.48,9.5-9.48s9.5,4.25,9.5,9.48-4.26,9.52-9.5,9.52-9.5-4.27-9.5-9.52Z"/></svg>