<?xml version="1.0" encoding="UTF-8"?><svg id="Icon_lila" xmlns="http://www.w3.org/2000/svg" viewBox="0 0 122 122"><defs><style>.cls-1{fill:#fff;}</style></defs><path class="cls-1" d="m56.5,90h-22c-1.38,0-2.5-1.12-2.5-2.5v-22c0-1.38,1.12-2.5,2.5-2.5h22c1.38,0,2.5,1.12,2.5,2.5v22c0,1.38-1.12,2.5-2.5,2.5Zm-19.5-5h17v-17h-17v17Zm50.5,5h-22c-1.38,0-2.5-1.12-2.5-2.5v-22c0-1.38,1.12-2.5,2.5-2.5h22c1.38,0,2.5,1.12,2.5,2.5v22c0,1.38-1.12,2.5-2.5,2.5Zm-19.5-5h17v-17h-17v17Zm-11.5-26h-22c-1.38,0-2.5-1.12-2.5-2.5v-22c0-1.38,1.12-2.5,2.5-2.5h22c1.38,0,2.5,1.12,2.5,2.5v22c0,1.38-1.12,2.5-2.5,2.5Zm-19.5-5h17v-17h-17v17Zm53.5-25h-22c-1.38,0-2.5,1.12-2.5,2.5v22c0,1.38,1.12,2.5,2.5,2.5h2.5v-22h17v17h-5c-1.66,0-3,1.34-3,3v2h10.5c1.38,0,2.5-1.12,2.5-2.5v-22c0-1.38-1.12-2.5-2.5-2.5Z"/></svg>