<?xml version="1.0" encoding="UTF-8"?><svg id="Icon_lila" xmlns="http://www.w3.org/2000/svg" viewBox="0 0 122 122"><defs><style>.cls-1{fill:#fff;}</style></defs><path class="cls-1" d="m54.85,59.41h-22c-1.38,0-2.5,1.12-2.5,2.5v22c0,1.38,1.12,2.5,2.5,2.5h22c1.38,0,2.5-1.12,2.5-2.5v-22c0-1.38-1.12-2.5-2.5-2.5Zm-2.5,22h-17v-17h17v17Z"/><path class="cls-1" d="m66.93,86.99l17.1-17.1h-17.1v17.1m-1.82,7.61c-1.62,0-3.18-1.26-3.18-3.16v-23.39c0-1.74,1.41-3.16,3.16-3.16h23.39c2.81,0,4.22,3.4,2.23,5.39l-23.39,23.39c-.64.64-1.43.93-2.21.93h0Z"/><path class="cls-1" d="m53.79,32.51c9.1.97,16.35,8.22,17.32,17.32h-17.32v-17.32m-2.07-5.11h-.43c-1.38,0-2.5,1.12-2.5,2.5v22.42c0,1.38,1.12,2.5,2.5,2.5h22.42c1.38,0,2.5-1.12,2.5-2.5v-.43c0-13.53-10.97-24.5-24.5-24.5h0Z"/></svg>